<?xml version="1.0" encoding="utf-8"?>
<!-- Generator: Adobe Illustrator 16.0.0, SVG Export Plug-In . SVG Version: 6.00 Build 0)  -->
<!DOCTYPE svg PUBLIC "-//W3C//DTD SVG 1.1//EN" "http://www.w3.org/Graphics/SVG/1.1/DTD/svg11.dtd">
<svg version="1.1" id="Layer_1" xmlns="http://www.w3.org/2000/svg" xmlns:xlink="http://www.w3.org/1999/xlink" x="0px" y="0px"
	 width="700.273px" height="504.696px" viewBox="0 0 700.273 504.696" enable-background="new 0 0 700.273 504.696"
	 xml:space="preserve">
<g>
	<g>
		<g>
			<path fill="#EB2127" d="M599.919,290.8c0,118.125-112.773,213.896-251.871,213.896c-139.099,0-251.859-95.771-251.859-213.896
				c0-118.134,112.761-213.902,251.859-213.902C487.146,76.898,599.919,172.667,599.919,290.8z"/>
			<linearGradient id="SVGID_1_" gradientUnits="userSpaceOnUse" x1="232.3677" y1="98.2651" x2="463.736" y2="483.3266">
				<stop  offset="0.6319" style="stop-color:#EB2127"/>
				<stop  offset="0.6919" style="stop-color:#E42127"/>
				<stop  offset="0.7492" style="stop-color:#D62327"/>
				<stop  offset="0.8055" style="stop-color:#C12426"/>
				<stop  offset="0.8612" style="stop-color:#A52424"/>
				<stop  offset="0.9164" style="stop-color:#84201F"/>
				<stop  offset="0.9705" style="stop-color:#601817"/>
				<stop  offset="1" style="stop-color:#4C1111"/>
			</linearGradient>
			<path fill="url(#SVGID_1_)" d="M599.919,290.8c0,118.125-112.773,213.896-251.871,213.896
				c-139.099,0-251.859-95.771-251.859-213.896c0-118.134,112.761-213.902,251.859-213.902
				C487.146,76.898,599.919,172.667,599.919,290.8z"/>
			
				<radialGradient id="SVGID_2_" cx="289.7378" cy="358.1675" r="255.6579" gradientTransform="matrix(0.5725 0 0 0.5753 90.3437 64.8175)" gradientUnits="userSpaceOnUse">
				<stop  offset="0" style="stop-color:#FBBA63"/>
				<stop  offset="0.0423" style="stop-color:#FAB25E"/>
				<stop  offset="0.2903" style="stop-color:#F48745"/>
				<stop  offset="0.5187" style="stop-color:#F06435"/>
				<stop  offset="0.7204" style="stop-color:#ED452C"/>
				<stop  offset="0.8877" style="stop-color:#EC2C28"/>
				<stop  offset="1" style="stop-color:#EB2127"/>
			</radialGradient>
			<path fill="url(#SVGID_2_)" d="M414.132,273.818c0,68.911-65.297,131.529-156.23,131.529
				c-90.939,0-159.598-57.557-159.598-126.457c0-68.907,66.982-142.495,157.906-142.495
				C347.154,136.395,414.132,204.917,414.132,273.818z"/>
		</g>
		<g>
			<path fill="#1B2D1A" d="M393.075,59.077c-3.395-10.535-18.579-13.192-21.165-16.281c22.731,27.057-4.187,19.629-12.285,7.415
				c-6.102-9.207,4.282-17.71,10.857-21.061c-11.107,0.342-22.465,5.776-34.2,16.3c2.394,7.057,4.54,12.837,6.435,17.461
				l18.679-9.248c-6.819,5.084-9.727,10.284-8.714,15.722c10.217,2.661,22.076,9.138,35.338,19.54
				c-19.186-7.396-32.813-9.134-41.016-5.202c0.385,5.552-1.383,13.756-5.178,24.624c-3.649-8.671-11.863-14.331-24.601-17.227
				c-8.833-1.964-19.939,0.93-33.32,8.671c8.71-9.363,14.642-16.187,17.921-20.459c2.908-3.588-2.273-8.447-15.646-14.456
				c12.234,4.969,20.688,2.654,25.368-6.935c-3.41,9.36-4.036,15.373-2.019,17.803c2.019,2.43,5.043,3.696,9.203,3.814
				c7.448-0.692,10.859-4.511,10.477-11.563c-1.64-3.12-1.891-10.173-0.883-21.162c1.01-11.099,4.166-20.581,9.472-28.553
				c5.167-7.985,9.758-3.184,2.442-11.044l-14.694-4.343c-3.652,10.771-1.507,27.644-12.991,50.072
				c-14.141-5.782-25.361-11.568-33.822-17.231l15.145,20.121c-13.249-0.116-22.972,1.277-29.152,4.157
				c-6.187,2.78-9.333,8.179-18.158,9.452c-8.964,1.273-16.311,2.3-34.865-8.24c6.865,3.904,18.462,18.539,30.582,21.314
				c16.781,2.897,29.053,10.33,29.971,3.579c-0.936,6.882,2.555,2.782-1.885,1.149c-26.385-9.73-80.855,40.752-87.416,43.275
				c49.197-18.888,85.603-36.593,102.456-13.428c3.759,5.168,10.026,12.623-0.94,22.953c-5.958,5.615-19.276,4.53-62.027,14.934
				c22.248-5.414,92.094,26.404,106.895-39.832c-1.189,5.325,31.648,12.779,47.556,29.334c17.89,18.626,25.255,29.705,30.526,56.309
				c2.141,10.84,5.261-50.42-1.728-66.429c-9.336-21.358-16.697-23.577-30.166-29.845c2.531,1.175,4.784-1.162,6.058-1.51
				c7.826-1.266,15.143-1.851,21.83-1.851h0.123c9.223,0,18.939,0.927,29.16,2.896c0.5,0.104,0.998,0.104,1.641,0.225l1.762,0.348
				c1.405,0.349,2.898,0.695,4.545,1.045l3.15,0.689c8.206,1.965,16.916,4.631,25.872,7.754c8.212,2.883,16.78,6.236,25.613,10.172
				c5.692,2.43,11.488,5.203,17.429,8.094c-3.666-4.399-7.699-8.56-12.13-12.49c-0.617-0.573-1.381-1.27-2.016-1.85
				c-23.724-20.463-76.991-43.922-123.777-42.945C386.279,74.878,398.867,77.028,393.075,59.077z"/>
			<path fill="#649941" d="M393.075,56.176c-3.395-10.531-17.674-9.111-20.262-12.195c22.729,27.061-5.09,15.547-13.188,3.343
				c-6.102-9.214,4.282-14.823,10.857-18.174c-11.107,0.342-22.465,2.884-34.2,13.399c2.394,7.056,4.54,12.831,6.435,17.459
				l18.679-9.246c-6.819,5.082-9.727,10.291-8.714,15.727c10.217,2.658,22.076,9.127,35.338,19.535
				c-19.186-7.396-32.813-9.135-41.016-5.202c0.385,5.552-1.383,13.757-5.178,24.631c-3.649-8.675-11.863-14.34-24.601-17.227
				c-8.833-1.966-19.939,0.925-33.32,8.671c8.71-9.367,14.642-16.188,17.921-20.468c2.908-3.583-2.273-8.438-15.646-14.458
				c12.234,4.975,20.688,2.664,25.368-6.931c-3.41,9.363-4.036,15.372-2.019,17.806c2.019,2.427,5.043,3.696,9.203,3.814
				c7.448-0.699,10.859-4.51,10.477-11.561c-1.64-3.129-1.891-10.175-0.883-21.162c1.01-11.1,4.166-20.582,9.472-28.56
				c5.167-7.98,9.758-3.187,2.442-11.042L325.545,0c-3.652,10.764-1.507,27.637-12.991,50.064
				c-14.141-5.782-24.744-7.964-33.198-13.629l14.521,16.52c-13.249-0.113-22.972,1.269-29.152,4.162
				c-6.187,2.779-9.333,8.174-18.158,9.451c-8.964,1.271-15.531,5.049-34.09-5.482c6.861,3.895,17.687,15.781,29.807,18.557
				c16.781,2.889,28.648-11.5,29.607-1.698c-0.677-6.915,2.918,8.047-1.521,6.413c-26.385-9.723-80.855,40.768-87.416,43.284
				c49.197-18.892,85.603-36.592,102.456-13.426c3.759,5.167,10.026,12.632-0.94,22.962c-5.958,5.618-19.276,4.521-62.027,14.912
				c22.248-5.4,92.094,26.42,106.895-39.813c-1.189,5.316,31.648,12.771,47.556,29.327c17.89,18.617,25.255,29.711,30.526,56.312
				c2.141,10.847,5.261-50.423-1.728-66.422c-9.336-21.376-16.697-23.589-30.166-29.854c2.531,1.176,4.784-1.156,6.058-1.507
				c7.826-1.269,15.143-1.845,21.83-1.845h0.123c9.223,0,18.939,0.919,29.16,2.889c0.5,0.109,0.998,0.109,1.641,0.225l1.762,0.35
				c1.405,0.35,2.898,0.695,4.545,1.044l3.15,0.696c8.206,1.962,16.916,4.624,25.872,7.746c8.212,2.891,16.78,6.242,25.613,10.168
				c5.692,2.434,11.488,5.209,17.429,8.096c-3.666-4.399-7.699-8.56-12.13-12.488c-0.617-0.582-1.381-1.271-2.016-1.849
				c-23.724-20.468-76.991-43.917-123.777-42.941C386.279,71.985,398.867,74.124,393.075,56.176z"/>
			
				<radialGradient id="SVGID_3_" cx="335.2632" cy="49.0171" r="49.1514" gradientTransform="matrix(1.171 0 0 0.9867 -56.6316 4.3624)" gradientUnits="userSpaceOnUse">
				<stop  offset="0" style="stop-color:#3B2416"/>
				<stop  offset="0.2234" style="stop-color:#3B2517"/>
				<stop  offset="0.368" style="stop-color:#3C2B1A"/>
				<stop  offset="0.4904" style="stop-color:#3D341F"/>
				<stop  offset="0.6003" style="stop-color:#3B4126"/>
				<stop  offset="0.7019" style="stop-color:#33512E"/>
				<stop  offset="0.7961" style="stop-color:#116637"/>
				<stop  offset="0.8077" style="stop-color:#016938"/>
			</radialGradient>
			<path fill="url(#SVGID_3_)" d="M343.976,4.161C341.58-1.968,329.335,2.196,325.545,0c7.329,7.861,18.009-2.238,10.9,15.486
				c-3.479,8.658-8.696,13.95-9.221,27.592c-0.419,11.021-0.868,16.091,0.104,20.57c1.518,6.94-1.149,12.313-8.598,13.012
				c-4.16-0.118-7.185-1.388-9.203-3.814c-2.018-2.434-1.392-8.442,2.019-17.806c-4.681,9.595-13.134,11.905-25.368,6.931
				c13.373,6.02,18.555,10.875,15.646,14.458c-3.279,4.279-9.211,11.101-17.921,20.468c13.381-7.746,24.487-10.637,33.32-8.671
				c12.737,2.887,20.951,8.552,24.601,17.227c3.795-10.874,5.563-19.079,5.178-24.631c8.203-3.933,21.83-2.194,41.016,5.202
				c-13.262-10.408-25.121-16.877-35.338-19.535c-1.013-5.436,1.895-10.645,8.714-15.727l-18.679,9.246
				c-1.895-4.628-4.041-10.403-6.435-17.459l6.683-23.468C342.964,19.082,346.376,10.295,343.976,4.161z"/>
		</g>
	</g>
	<g>
		<path d="M692.18,338.362c-0.405-12.765-3.328-18.623-6.605-22.174c-1.681-1.842-6.464-6.566-17.345-6.042
			c-2.812,0.121,9.856,0.161,9.856,0.161c2.574-0.089,7.8-0.517,6.517-8.116c-4.226-25.007-36.259-22.566-36.259-22.566
			c-2.257-0.063-8.504,0.515-16.445,2.403c-9.952,2.344-17.567,10.507-20.08,16.016c-5.767,12.563,2.882,33.1,0.521,28.8
			c-10.479-19.119-31.639-17.811-36.652-17.811c-2.875,0-21.992,0-33.525,14.928c0,0-0.446-6.321-1.135-10.089
			c-0.881-4.817-2.211-10.915-4.838-14.027c-2.899-3.423-8.227,1.524-11.491-0.611c-3.548-2.302-3.046-9.439-3.046-9.439
			c-1.312-3.35-4.008-2.687-4.203-3.607c-0.175-0.921-0.44-3.092-0.071-5.681l2.61-0.223c0-1.074-0.104-3.544-0.104-7.032
			c0-9.267-0.011-38.76-0.053-40.799c-0.15-7.055-11.586-26.193-41.219-8.921c-0.509-1.511-1.234-3.392-2.159-3.527
			c-1.321-0.206-10.145-0.355-14.254-0.282c-2.592,0.063-6.252-0.727-7.969,3.824c-0.449-14.904-36.414-38.578-61.022-8.932
			c-0.22-1.514,0.14-3.565-1.438-4.679c-1.657-0.575-5.326-0.429-12.808-0.513c0.368-7.193-0.009-14.383-0.861-14.747
			c-2.379-0.993-13.881-0.642-19.34,0.583c0,0-4.982,15.964-6.411,15.964c-1.118,0-2.519,0.218-2.953-0.14
			c-0.373-0.313-0.157-5.348-0.157-7.943c0-2.598,0.053-6.164-3.656-6.164c-3.705,0-10.861-0.279-10.861-0.279
			c-0.182-3.896,1.729-15.036-1.366-15.322c-3.864-0.363-18.343-0.3-19.062,0.998c-2.452,4.424-6.325,16.212-6.547,16.193
			c-2.45-0.143-11.439,0.221-11.439,0.221c0,5.188,0.07,14.175,0,17.119c-0.019,0.697,0.146,6.188,0.146,6.188
			c0.717,0.212,5.896,0.065,5.896,0.065c-0.074,2.014-0.863,9.717-0.863,9.717c-13.525-18.409-44.605-21.727-59.574,6.034
			c-0.934-0.554-1.367-1.382-2.856-2.685c1.116-1.846,22.733-33.75-9.81-47.781c-12.438-2.965-35.861-6.434-58.996-0.259
			c-4.732,1.62-7.467,3.569-7.467,3.569c0,15.396,0.953,58.784,0.39,72.693c-0.08,2.078-0.538,13.302,0.783,13.633
			c2.874,0.76-0.309,7.487,2.918,8.979c0,0,19.687,0.777,27.091-0.394c1.808-0.29,0.066-8.894,1.759-8.774
			c2.725,0.188,1.172-20.848,1.172-20.848c6.039-0.781,10.323-0.392,10.323-0.392c0.785,1.756,4.287,28.454,5.66,28.648
			c11.511,1.647,27.596,1.103,32.287,1.103c1.256,0,1.338-8.163,1.617-7.346c0.973,2.93,11.493,11.888,11.493,11.888
			c-8.376-0.191-13.445,6.63-13.445,6.63c-21.579-19.788-44.585-1.41-45.599-2.921c-1.246-1.831-2.141-2.139-3.314-2.334
			c-2.666-0.454-21.049,0.195-23.975,0.579c-2.214,0.3-4.823,1.386-4.876,3.896c-0.193,10.526-0.017,23.067,0.376,34.957
			l-6.176-6.482c4.521-4.691,4.628-7.49,3.271-8.792c-5.757-5.525-14.288-3.823-14.288-3.823c3.499-2.28,4.423-10.895,4.423-10.895
			c-9.738-2.442-17.047,2.132-17.047,2.132c-5.164-8.837-18.563-10.351-18.563-10.351c0,2.965,0.606,12.178,0.606,12.178
			c-14.302-5.787-27.694,1.818-29.823,3.643c-4.456,3.827-3.354,1.218-9.127,9.744l-6.699,15.221
			c-0.552-12.249-1.825-31.959-1.9-37.255c-0.026-1.675,19.836,0.935,20.763-0.181c0.935-1.113,0.565-4.46,1.68-7.613
			c1.114-3.154,1.302-13.17,1.484-16.138c0.185-2.966,0.557-12.615-1.664-15.025c-2.231-2.411-5.008-2.777-7.608-2.411
			c-2.6,0.37-58.986,5.567-70.12,5.197c-11.128-0.37-15.392,0.549-16.319,4.263c-0.93,3.706,0.369,30.6,0.369,31.908
			c0,1.301,2.596,4.636,2.596,6.681c0,2.034,0.555,5.007,3.341,5.185c2.78,0.191,23.187-2.596,24.108-1.287
			c0.93,1.287,2.785,54.899,2.785,58.242c0,3.332,2.596,6.3,2.596,7.601c0,1.302-2.781,7.973,9.093,7.973
			c11.868,0,27.452-0.188,28.567-0.736c1.11-0.562,2.223-4.267,2.223-6.312c0-2.034,1.668-3.341,1.668-3.887
			c0-0.555,0.372-3.906,0-5.005c-0.373-1.12,0-5.582,1.117-4.278c1.109,1.302,3.706,46.006,56.943,37.476
			c0.36-4.13,5.543-23.008,20.76-12.053c0,0,7.102-5.941,11.025-15.371c2.098,5.237,0.536,8.979,1.832,9.168
			c0,0,17.396,0.13,29.287-0.655c4.068-0.255,6.92-9.151,7.365-12.44l-0.15-36.171l8.79,0.046c0,0,0.113,31.303,0.483,32.971
			c0.374,1.675,1.859,3.716,2.414,5.759c0.557,2.027-0.934,7.041,2.222,7.973c3.155,0.921,32.09,1.105,33.02-0.747
			c1.115-2.219,3.156-7.789,3.156-10.943s0.179-37.472,0.179-37.472h9.094c0,0,0.369,37.105,0.369,39.146
			c0,2.043,1.861,1.479,1.861,2.962c0,1.488-2.785,9.465,9.643,9.084c12.429-0.362,22.626-0.925,23.738-0.555
			c1.111,0.377,2.23,12.419,21.428,16.223c5.818,1.154,22.725-0.077,32.922-6.762c1.293,2.048,0,6.499,8.899,5.57
			c8.911-0.93,21.15-1.673,23.195-1.673c2.033,0,1.476,0,2.223-4.452c0.741-4.454,2.032-4.075,2.032-5.379
			c0-1.298-0.923-7.414-0.923-9.644c0-2.231-1.109-5.009-1.109-8.348c1.673,3.709,3.341,25.788,34.132,24.113
			c10.94-0.743,26.891-2.78,29.674-29.49c3.157,5.007,9.459,14.834,21.344,16.875c2.585-1.856,10.104-13.103,18.044,2.69
			c2.222,0.565,24.797,2.505,37.593-16.6c1.124,5.195,1.486,43.595,47.299,43.776c45.819,0.19,41.923-36.913,41.923-40.8
			c3.164,3.335,10.375,13.344,33.379,10.752C675.891,372.675,693.16,368.399,692.18,338.362z M276.267,259.7l-5.963-0.271
			l-0.061-5.679l6.16-0.077L276.267,259.7z M404.964,276.375c-1.392,3.774-8.143,20.046-8.928,22.027
			c-2.979,0-9.248,0.37-11.114,0.604c-3.176,0.388-3.65-1.029-3.379,11.697c-5.389-5.438-21.963-15.817-46.293-11.488
			c-12.168,2.171-19.678,3.562-30.882,20.028c0-13.096-4.557-24.41-16.867-28.781c0,0,19.049-5.547,20.838-27.371
			c4.758,3.768,26.29,13.965,38.883-1.79c0.89,18.078,36.221,35.427,48.612,4.969c4.165,4.96,8.924,8.124,16.26,9.715
			C407.735,275.985,409.531,275.985,404.964,276.375z M451.297,313.648c2.177,4.731,4.988,13.431-4.479,20.978
			c-0.765,4.095-0.51,8.324-0.51,8.837c-2.815-0.513-14.848,0.004-16.634-0.127c-0.75-0.055-1.539-0.767-2.564,9.842
			c-0.568,0-0.865,0-1.019,0l0.248-18.933c0,0,13.435-0.254,17.411-0.254c2.432-5.376,4.093-6.664,4.738-18.939
			c0.642-12.291,2.809-18.298-3.328-17.914c-4.856,0.299-14.343,0-16.509,0l-0.392-19.708c0,0,25.984-3.845,26.501-23.165
			c0.25,16.383-0.255,29.138,2.166,32.641c1.158,1.653,1.79,2.169,4.996,2.169c-1.874,1.473-3.709,2.436-5.248,4.223
			c0.109,1.565,2.687,3.457,5.629,7.677C459.097,304.568,452.452,308.782,451.297,313.648z M488.757,275.378h-4.187l-0.08-23.095
			l4.267,0.084V275.378z"/>
		<path fill="#F6EB14" d="M238.991,242.83c-1.343-5.694-7.616-9.015-15.733-11.944c5.168-0.83,19.07-1.738,17.451-22.635
			c-2.428-31.286-72.479-15.699-72.479-15.699l0.623,80.692l22.242-0.109l-1.012-30.188l22.625-0.291
			c0.829,7.627,2.901,30.379,2.901,30.379s21.225-0.105,27.31-0.105C242.089,260.823,241.312,252.64,238.991,242.83z
			 M215.142,224.395l-20.422-0.09l0.104-17.887l20.785-0.209L215.142,224.395z"/>
		<path fill="#F6EB14" d="M273.984,222.373c-16.134,0-29.223,12.984-29.223,29.008c0,16.026,13.173,30.682,29.223,29.025
			c23.187-2.404,29.217-12.999,29.217-29.025C303.201,235.357,290.121,222.373,273.984,222.373z M264.248,260.92l2.637-23.051
			l13.998,0.201l1.62,25.693L264.248,260.92z"/>
		<path fill="#F6EB14" d="M328.758,186.961v14.514l14.46,0.342l-0.068,14.3l-16.043,0.123l-0.776,26.011h8.929v-6.527l10.428-0.262
			l-0.281,10.031c0,0-1.006,10.757-15.126,11.36c-12.966,0.556-18.868-2.589-22.61-10.141c-0.172-10.229-0.045-13.924,1.869-31.491
			c-3.491,0.432-2.17-0.252-7.643,0.125l0.088-12.057l9.459-0.027l6.874-16.481L328.758,186.961z"/>
		<path fill="#F6EB14" d="M373.858,199.711v14.515l14.466,0.346l-0.087,14.296L372.201,229l-0.771,26.002h8.932l-0.007-6.521
			l10.436-0.258l-0.279,10.025c0,0-1.014,10.759-15.126,11.358c-12.971,0.549-18.874-2.588-22.619-10.134
			c-0.164-10.235-0.043-13.926,1.868-31.49c-3.487,0.428-2.165-0.252-7.642,0.117l0.098-12.057l9.457-0.041l6.871-16.467
			L373.858,199.711z"/>
		<path fill="#F6EB14" d="M422.91,280.318l-0.296,20.329l21.067,0.184l-0.727,19.788h-21.992v36.627l11.404,0.259l0.138-10.125
			l14.33,0.258l-0.024,14.038c0,0-3.153,13.848-20.75,13.848s-25.114-1.057-31.304-14.732c0.562-13.864-0.914-11.83,2.635-41.289
			c-4.061-0.107-10.117-0.258-10.117-0.258l0.136-15.653l11.826-0.129l10.261-22.746L422.91,280.318z"/>
		<path fill="#F6EB14" d="M429.486,250.675c-3.245,0-16.71-0.61-16.71-0.61c0.132-4.067-0.388-10.117-0.388-10.117
			c8.11,0,16.306-0.133,39.306-0.785c0-24.759-15.381-33.131-30.804-32.953c-12.577,0.146-28,10.958-28,28.004
			c0,17.038,8.854,29.722,31.987,29.666c25.013-0.049,25.243-19.585,25.243-19.585c-3.646,0-20.384,0.44-20.384,0.44
			C429.577,246.807,429.486,250.675,429.486,250.675z M415.28,219.708h15.776v9.729l-15.926-0.117L415.28,219.708z"/>
		<path fill="#F6EB14" d="M585.822,374.343c-4.396,0-22.871,0.104-22.871,0.104c-0.461-5.516-0.23-13.518-0.23-13.518
			c11.011,0,21.634-0.9,52.634-1.12c0.125-34.95-19.271-45.335-40.821-45.388c-20.936-0.038-38.519,15.26-38.519,38.501
			s10.812,41.03,45.066,39.902c31.373-1.031,32.462-26.936,32.462-26.936c-4.95,0-28.052,1.006-28.052,1.006
			C585.26,369.72,585.822,374.343,585.822,374.343z M567.223,333.09l20.521-0.446l0.22,13.521l-21.242-0.23L567.223,333.09z"/>
		<path fill="#F6EB14" d="M460.437,225.195l15.458,0.163l0.391,5.917c0,0,11.034-9.167,21.403-9.063
			c12.126,0.119,15.111,5.31,15.733,9.762c0.732,5.348,0.209,44.794,0.209,44.794l-19.326,0.397c0,0-0.831-38.629-0.912-38.319
			c-0.142,0.576-8.567,0.346-13.943,0.44c0,2.4-1.057,35.506-1.057,35.506l-18.141,0.129L460.437,225.195z"/>
		<path fill="#F6EB14" d="M4.943,265.694c0,0,51.246-2.617,85.054-6.856c0.155,5.935,0.604,20.252,0.458,24.962
			c-3.917,0.485-15.649,0.485-24.482,0.335c0.309,2.582,6.383,80.039,6.532,83.389c-3.198-0.161-29.582,0.484-32.478,0.325
			c0-3.811-3.465-65.164-5.061-75.065c-3.953,0.3-24.473,2.125-28.721,1.949C6.246,289.716,5.404,272.084,4.943,265.694z"/>
		<path fill="#F6EB14" d="M156.048,371.444c0,0-19.946-10.336-22.833,14.311c-6.085,0.765-34.694,7.302-49.155-28.457
			c0,0,4.416-10.5-4.566-14.307c0.459-9.272,4.417-48.848,45.502-31.949c0.457-4.416,0.159-7.312-1.367-13.553
			c2.891,1.058,9.742,4.574,11.719,13.854c1.82-2.128,3.351-6.241,13.854-7.919c-1.22,3.042-3.049,6.092-8.072,10.201
			c5.172,0.913,13.247,0.913,17.807,3.195c-3.344,2.281-5.479,1.674-13.693,3.799c6.851,3.803,15.061,2.896,20.688,18.423
			c-1.666,1.976-1.975,1.776-3.187,4.253c-0.109,0.475-0.763,2.596,0.755,6.248c1.339,3.207,2.898,3.646,1.675,7.604
			C163.664,362.029,159.091,369.169,156.048,371.444z"/>
		<path fill="#F6EB14" d="M172.374,296.576l23.464-0.05v7.786c0,0,25.832-28.711,48.252-0.396
			c3.455-8.021,41.86-25.182,53.633,4.897c1.34,28.397,1.705,57.896,1.705,57.896l-27.994-0.809c0,0-1.006-32.158-1.006-49.713
			c-5.475,0.098-15.682-0.178-19.611-0.269c-0.102,1.531,0,45.062,0,48.614c-3.262,0-25.92-0.275-30.234-0.275
			c-0.102-3.646,0-40.923,0-47.257c-6.622,0.198-13.938,0.182-19.885,0.279c0,3.738-0.407,44.612-0.407,48.072
			c-4.905,0.133-19.943,0.614-28.188,0.133C172.189,361.641,172.374,303.113,172.374,296.576z"/>
		<path fill="#F6EB14" d="M383.353,331.715c0.375-11.023-4.356-27.521-34.043-27.385c-29.68,0.118-40.962,8.585-41.201,26.23
			c13.179-0.133,21.697-0.087,26.957,0.049c0-5.125,0.56-7.601,0.428-9.656c1.793,0.132,15.605,0.777,23.415,3.586
			c0.257,4.867-0.255,6.402-0.255,9.855c-6.532-0.122-41.738,1.283-49.266,12.033c-4.932,7.039-11.895,27.643,8.824,34.68
			c12.803,2.045,19.33,3.453,38.141-7.037c1.206-0.68,2.371,4.554,3.164,7.369c0,0,13.407-1.916,26.134-2.128
			C385.214,369.752,382.735,354.047,383.353,331.715z M352.07,363.515l-19.72,1.412l0.142-12.486l20.369-3.687L352.07,363.515z"/>
		<path fill="#F6EB14" d="M473.847,362.757c4.305,1.141,13.187-12.178,21.096,3.457c0,0,54.59-0.209,37.137-61.884
			c-5.279,0.805-15.008,2.222-15.626-13.4c-6.89-2.034-13.797-1.214-22.118,2.435c2.844-3.648,3.653-4.256,7.31-11.568
			c-3.656,1.222-10.348,7.718-14.199,9.745c-0.213-3.256-0.412-6.696-2.034-11.974c-2.226,2.034-4.263,5.277-4.869,14
			c-3.245-1.207-8.115-4.459-17.245-1.012c2.435,2.03,8.11,5.48,10.756,8.118c-6.702,2.022-15.63,5.878-17.457,11.767
			c2.843,2.634,5.079,15.817-4.661,21.706C452.336,341.854,459.237,358.91,473.847,362.757z"/>
		<path fill="#F6EB14" d="M642.351,345.705l-1.015-4.354c-2.023,0.035-17.849,0-22.917,0c0,1.218,1.825,26.074,35.196,21.508
			c13.494-1.72,33.394-4.169,32.776-25.669c-0.61-21.306-13.393-22.723-19.987-24.152c-6.6-1.409-26.178-1.204-30.842-0.907
			c0.098-2.337-0.307-7.305-0.307-9.736c3.453-0.304,15.732-1.315,20.185-1.211c1.224,0.098,1.733-0.21,2.038,4.867
			c3.446,0.3,15.224-0.712,21.709-1.225c-0.81-4.77-4.766-18.257-23.44-19.072c-18.657,0.206-24.653,0.408-34.593,7.814
			c-5.076,5.072-9.838,15.723-3.248,29.113c3.953,7.001,9.98,9.707,15.12,11.062c5.376,1.423,20.087,1.524,32.876,1.829v9.332
			C663.57,345.042,649.155,345.705,642.351,345.705z"/>
		<path fill="#526E39" d="M497.414,320.213c-1.158-1.472-0.926-4.364-0.496-7.015c1.078-6.66,1.626-14.063-5.944-13.604
			c-9.298,0.555-5.624,9.943-4.797,11.461c0.756,1.378,3.464,4.626,4.371,7.87c0.255,0.932,1.127,4.888-0.294,5.307
			c-1.719,0.502-4.067-2.562-4.434-4.231c-1.79-7.84-7.5-9.309-10.602-5.583c-2.143,2.568-2.425,5.213,1.36,8.67
			c3.217,2.934,10.026,2.358,8.952,7.159c-0.451,1.992-3.286,1.468-8.021,1.789c-3.228,0.21-6.231,3.283-4.87,6.51
			c1.36,3.241,7.193,3.642,9.813,1.147c2.609-2.483,3.652-7.189,6.14-6.698c2.484,0.502,2.878,2.97,2.38,7.2
			c-0.495,4.236-1.789,12.184,6.087,11.468c6.929-0.642,5.146-7.382,3.58-11.034c-1.361-3.144-0.502-5.299,1.789-5.662
			c2.132-0.331,4.592,2.296,6.158,5.662c2.341,4.996,11.938,8.767,14.616,2.068c2.143-5.366-2.106-7.895-5.588-9.018
			c-3.481-1.12-3.015-0.685-7.235-2.219c-2.362-0.858-4.365-0.795-4.295-3.65c0.133-5.445,13.533-2.012,13.18-11.32
			c-0.265-6.711-5.449-8.522-9.526-6.017c-4.703,2.892-4.403,5.197-7.086,9.669C501.997,321.218,499.733,323.162,497.414,320.213z"
			/>
		<path d="M700.273,296.184c0,6.08-4.943,11.023-11.038,11.023c-6.087,0-11.027-4.943-11.027-11.023
			c0-6.099,4.94-11.034,11.027-11.034C695.33,285.15,700.273,290.085,700.273,296.184z"/>
		<g>
			<path fill="#F6EB14" d="M693.272,301.041c-0.262,0-0.489-0.102-0.705-0.301c-1.423-1.339-2.986-2.26-4.702-2.783
				c0.052,1.367,0.066,2.125,0.066,2.281c0,0.275-0.088,0.496-0.263,0.688c-0.201,0.188-0.432,0.274-0.715,0.274
				c-0.282,0-0.52-0.087-0.712-0.274c-0.188-0.191-0.286-0.412-0.286-0.688c0-0.355,0.011-0.88,0.021-1.583
				c0.008-0.705,0.017-1.232,0.017-1.585l0.007-5.706c0-0.309,0.088-0.58,0.276-0.831c0.248-0.324,0.572-0.467,0.991-0.439
				c1.151,0.091,1.736,0.132,1.775,0.132c0.652,0.087,1.207,0.237,1.674,0.482c2.014,1.012,3.015,2.271,3.015,3.76
				c0,0.621-0.212,1.162-0.638,1.641c-0.408,0.474-1.044,0.872-1.891,1.207c1.252,0.687,2.193,1.401,2.818,2.124
				c0.171,0.188,0.251,0.395,0.251,0.632c0,0.265-0.102,0.487-0.296,0.68C693.774,300.943,693.541,301.041,693.272,301.041z
				 M688.747,292.137c-0.049,0-0.32-0.014-0.83-0.041v3.745c0.105,0,0.216,0.015,0.307,0.015c1.155,0,2.01-0.146,2.568-0.439
				c0.243-0.122,0.461-0.286,0.658-0.492c0.203-0.198,0.301-0.352,0.301-0.457c0-0.522-0.339-1.032-1.008-1.521
				C690.111,292.479,689.438,292.217,688.747,292.137z"/>
		</g>
		<path fill="none" stroke="#F6EB14" stroke-width="1.8323" d="M697.866,295.996c0,4.605-3.74,8.335-8.337,8.335
			c-4.602,0-8.332-3.729-8.332-8.335c0-4.598,3.73-8.324,8.332-8.324C694.125,287.671,697.866,291.398,697.866,295.996z"/>
	</g>
</g>
</svg>
